<mxfile host="app.diagrams.net" modified="2024-03-10T09:28:04.086Z" agent="Mozilla/5.0 (Macintosh; Intel Mac OS X 10_15_6) AppleWebKit/537.36 (KHTML, like Gecko) Chrome/108.0.5359.95 Safari/537.36" version="24.0.2" etag="u-96K6s3H4o0XP7YTJp0" type="github">
  <diagram name="第 1 页" id="vW0vmsqnsvoZkvG6dWWI">
    <mxGraphModel>
      <root>
        <mxCell id="0" />
        <mxCell id="1" parent="0" />
      </root>
    </mxGraphModel>
  </diagram>
</mxfile>
